/* XPM */
static char *f5ccae5917904c3ae18c99a3841fe9daWb2dSi0bXhWJWBDw[] = {
/* columns rows colors chars-per-pixel */
"64 64 200 2 ",
"   c none",
".  c #0E0907",
"X  c #0E0A08",
"o  c gray6",
"O  c #140E0C",
"+  c #14110F",
"@  c #161616",
"#  c gray9",
"$  c #181818",
"%  c #1B1B1B",
"&  c #1B1C1C",
"*  c gray11",
"=  c #1D1D1D",
"-  c #1E1E1E",
";  c gray12",
":  c #211713",
">  c #281C18",
",  c #26211F",
"<  c #33251F",
"1  c #35261F",
"2  c #202020",
"3  c #222222",
"4  c #232323",
"5  c #272321",
"6  c #252525",
"7  c gray15",
"8  c #272727",
"9  c #2F2622",
"0  c #2F2825",
"q  c #2F2926",
"w  c gray16",
"e  c #2A2A2A",
"r  c gray17",
"t  c #2C2C2C",
"y  c #2D2D2D",
"u  c gray18",
"i  c #2F2F2F",
"p  c #342621",
"a  c #3B2923",
"s  c #3C2A24",
"d  c gray19",
"f  c #313131",
"g  c #323232",
"h  c #343434",
"j  c gray21",
"k  c #373737",
"l  c #383332",
"z  c gray22",
"x  c #393939",
"c  c #3A3A3A",
"v  c gray23",
"b  c #3C3C3C",
"n  c gray24",
"m  c #3E3E3E",
"M  c #3F3F3F",
"N  c #40302A",
"B  c #443028",
"V  c #443029",
"C  c #40332E",
"Z  c #44332D",
"A  c #47332C",
"S  c #47332D",
"D  c #47342D",
"F  c #44342F",
"G  c #48322B",
"H  c #49352E",
"J  c #4A362F",
"K  c #4D372F",
"L  c #413530",
"P  c #463631",
"I  c #463731",
"U  c #4B3933",
"Y  c #493934",
"T  c #4E3B35",
"R  c #4B3C36",
"E  c #4B3C37",
"W  c #493C38",
"Q  c #4A3E3A",
"!  c #4D3D38",
"~  c #513830",
"^  c #503A32",
"/  c #503C35",
"(  c #4B413D",
")  c #53433D",
"_  c #55433D",
"`  c gray25",
"'  c #414141",
"]  c gray26",
"[  c #434343",
"{  c #444444",
"}  c gray27",
"|  c #464544",
" . c #464646",
".. c gray28",
"X. c #494340",
"o. c #484341",
"O. c #484746",
"+. c #484747",
"@. c #4C4746",
"#. c #484848",
"$. c #494949",
"%. c #4A4949",
"&. c gray29",
"*. c #4B4B4B",
"=. c #4D4A4A",
"-. c #4C4B4B",
";. c #4E4C4B",
":. c #4B4C4C",
">. c #4C4C4C",
",. c gray30",
"<. c #4E4E4E",
"1. c gray31",
"2. c #524F4E",
"3. c #534F4E",
"4. c #54504E",
"5. c #505050",
"6. c #515151",
"7. c gray32",
"8. c #535252",
"9. c #535353",
"0. c gray33",
"q. c #555555",
"w. c #555556",
"e. c #575756",
"r. c gray34",
"t. c gray35",
"y. c #5A5A5A",
"u. c #5B5B5B",
"i. c #5C5958",
"p. c gray36",
"a. c gray37",
"s. c #615956",
"d. c #615D5C",
"f. c gray38",
"g. c #626262",
"h. c #656565",
"j. c gray40",
"k. c #676767",
"l. c DimGray",
"z. c #6B6A6A",
"x. c gray42",
"c. c #6C6C6C",
"v. c #6D6D6D",
"b. c gray43",
"n. c #6F6F6F",
"m. c #717171",
"M. c #747474",
"N. c #808080",
"B. c #848484",
"V. c gray52",
"C. c gray53",
"Z. c #888888",
"A. c gray56",
"S. c #939393",
"D. c gray61",
"F. c #9D9D9D",
"G. c #9F9F9F",
"H. c gray64",
"J. c #A5A5A5",
"K. c gray65",
"L. c #A7A7A7",
"P. c gray66",
"I. c #AAAAAA",
"U. c #ACACAC",
"Y. c #AEAEAE",
"T. c #AFAFAF",
"R. c gray69",
"E. c #B1B1B1",
"W. c #B4B4B4",
"Q. c #B9B9B9",
"!. c gray73",
"~. c #BBBBBB",
"^. c gray74",
"/. c gray",
"(. c gray75",
"). c gray76",
"_. c #C3C3C3",
"`. c gray77",
"'. c #C5C5C5",
"]. c gray78",
"[. c #C8C8C8",
"{. c gray79",
"}. c #CACACA",
"|. c #CBCBCB",
" X c #CECECE",
".X c gray81",
"XX c #D5D5D5",
"oX c #D8D8D8",
"OX c gray85",
"+X c #DADADA",
"@X c gray86",
"#X c gainsboro",
"$X c gray87",
"%X c #DFDFDF",
"&X c gray88",
"*X c #E1E1E1",
"=X c #E2E2E2",
"-X c gray89",
";X c #E4E4E4",
":X c gray90",
/* pixels */
"                                                                                                                                ",
"                                                                                                                                ",
"                                                                                                                                ",
"                                                                                                                                ",
"                                                                                                                                ",
"                                                                                                                                ",
"                                                                                                                                ",
"                                                                                                                                ",
"                                                                                                                                ",
"                                                                                                                                ",
"                                                                                                                                ",
"                                                                                                                                ",
"                                                                                                                                ",
"                                                                                                                                ",
"                                                                                              p.p.6.                            ",
"                                                                                          h.J./.!.y.                            ",
"                                                                                      h.J.'.{.{.{.y.                            ",
"                                                                                  m.D.'.{.'.'.$XY.                              ",
"                                                                                V.{.{.'.'.'.$XXXg.                              ",
"                                                                            *.Z.{.{.{.'.'.+X&XP.                                ",
"                                                                          h.!.{.{.!.D.P.$X&X+Xg.                                ",
"                                                                        h.).{./.S.q.] !.&X&XH.                                  ",
"                                                                    z c.).).A.p.] b z.+X&X+Xc.                                  ",
"                                                                  1.R.'.D.y.] 1.q.] R.:X+XN.                                    ",
"                                                                6.W.Y.c. . .*.1.*.M.$X$XV.                                      ",
"                                                              *.D.c.*. .*. .] *. .Y.:X'. .                                      ",
"                                                            = g.*. .1.*.]  . . .c.&X Xg.                                        ",
"                                                            7 *.*. .j w z  .*.6./. Xg.                                          ",
"                                                            z 6.z =     u *.] V.+Xz.                                            ",
"                                                            f 1.u       z 1.6. XW.                                              ",
"                                                            f *.w     3  .] V.!.]                                               ",
"                                                      = f w u j ] u f b *.6.J. .                                                ",
"                                                    7 3 7 3 f u j 1.6.6. .z.]                                                   ",
"                                                  = %         f u u u j 3 %                                                     ",
"                                                  7           u f                                                               ",
"                                                  w           f z                                                               ",
"                                            u  .b 7 #         u 3                                                               ",
"                                          , +.:.1.f 3 #     w f                                                                 ",
"                                        . < L o.q.6.j u j u 3                                                                   ",
"                                      o 0 N V A ( 2.h.p.                                                                        ",
"                                    X 0 *.;.Q A G T s.i.                                                                        ",
"                                    : C @.2.-.o.U ~ K 9                                                                         ",
"                                  O 1 V D D D ! / a >                                                                           ",
"                                # l A A Q R ) _ p                                                                               ",
"                                b +.P J 4.h.z. .                                                                                ",
"                              7 1.-.P J d.q.j                                                                                   ",
"                            = *.q.6.Y ~ @.&                                                                                     ",
"                             .q.q.q.R s +                                                                                       ",
"                            b g.q.q.5                                                                                           ",
"                              z *.7                                                                                             ",
"                                                                                                                                ",
"                                                                                                                                ",
"                                                                                                                                ",
"                                                                                                                                ",
"                                                                                                                                ",
"                                                                                                                                ",
"                                                                                                                                ",
"                                                                                                                                ",
"                                                                                                                                ",
"                                                                                                                                ",
"                                                                                                                                ",
"                                                                                                                                ",
"                                                                                                                                ",
"                                                                                                                                "
};
