/* XPM */
static char *_7d8f880c978492dd42c0b52af55f42dTKUhsTAenHTfjp1u[] = {
/* columns rows colors chars-per-pixel */
"64 64 157 2 ",
"   c None",
".  c #010101",
"X  c #060909",
"o  c #090D0D",
"O  c #0D1314",
"+  c #131414",
"@  c #101718",
"#  c #131B1D",
"$  c #151E21",
"%  c #172023",
"&  c #192326",
"*  c #1C262A",
"=  c #1E2A2D",
"-  c #202A2E",
";  c #202C31",
":  c #243236",
">  c #263639",
",  c #28373B",
"<  c #29393D",
"1  c #333535",
"2  c #383D3E",
"3  c #2C3E43",
"4  c #2E4146",
"5  c #354347",
"6  c #3C4344",
"7  c #31454A",
"8  c #3E4749",
"9  c #354A4F",
"0  c #3F484A",
"q  c #364C51",
"w  c #384F56",
"e  c #395055",
"r  c #3C545A",
"t  c #3F595F",
"y  c #3E5860",
"u  c #464646",
"i  c #45494B",
"p  c #4A4D4D",
"a  c #444E51",
"s  c #4B4F50",
"d  c #475357",
"f  c #4E5354",
"g  c #41575C",
"h  c #4B5A5E",
"j  c #555555",
"k  c #505759",
"l  c #515A5C",
"z  c #425C63",
"x  c #4E5E62",
"c  c #545E61",
"v  c #436067",
"b  c #46636B",
"n  c #49666D",
"m  c #4A686F",
"M  c #566265",
"N  c #59656A",
"B  c #5B6A6E",
"V  c #496770",
"C  c #4C6C74",
"Z  c #506D73",
"A  c #5E6F73",
"S  c #4F717A",
"D  c #5E7176",
"F  c #50717B",
"G  c #5B747A",
"H  c #61767B",
"J  c #557781",
"K  c #567982",
"L  c #5A7B83",
"P  c #5B7F89",
"I  c #647F84",
"U  c #5C828C",
"Y  c #688086",
"T  c #6A868D",
"R  c #628994",
"E  c #6D8B92",
"W  c #658E99",
"Q  c #67919D",
"!  c #68929E",
"~  c #71939C",
"^  c #7498A1",
"/  c #709EAC",
"(  c #77A0A9",
")  c #76A7B4",
"_  c #7EA8B5",
"`  c #00B7EF",
"'  c #04B9EF",
"]  c #0BBAEE",
"[  c #16BCEE",
"{  c #1DBDED",
"}  c #06BAF0",
"|  c #08BAF0",
" . c #23BEED",
".. c #7DB1C0",
"X. c #2BC1EE",
"o. c #35C3EE",
"O. c #3AC5EE",
"+. c #44C6ED",
"@. c #48C7EC",
"#. c #4DC8EC",
"$. c #55C8EC",
"%. c #5CCBEC",
"&. c #60CBEC",
"*. c #64D3F5",
"=. c gray56",
"-. c #AEB9BD",
";. c #B4B4B4",
":. c #B2B7B8",
">. c #B2B9BA",
",. c #ADBEC2",
"<. c #ABC1C6",
"1. c #A6C5CE",
"2. c #A9C3CA",
"3. c #A6C7D1",
"4. c #A5CAD4",
"5. c #A2CDDA",
"6. c #97D6E6",
"7. c #98D7E7",
"8. c #96D9E7",
"9. c #99D8E6",
"0. c #97D7E9",
"q. c #99D6E9",
"w. c #97DAE9",
"e. c #99D8E9",
"r. c #99D9EA",
"t. c #9BD8EB",
"y. c #99DAEB",
"u. c #9AD9E9",
"i. c #9CDAEA",
"p. c #9CDBED",
"a. c #99D9EA",
"s. c #A2DCEB",
"d. c #A3E0ED",
"f. c #ABE1EE",
"g. c #BEE5EF",
"h. c #BFE6F0",
"j. c #BEEDFB",
"k. c #B5E3F0",
"l. c #D0D0D0",
"z. c #C4E6F1",
"x. c #C1E8F2",
"c. c #C2E9F3",
"v. c #CCEBF3",
"b. c #D2EEF5",
"n. c #DBF1F7",
"m. c #D6F3FC",
"M. c #D9F3F8",
"N. c #E1E1E1",
"B. c #E2F3F7",
"V. c #E5F5F9",
"C. c #EBF6F9",
"Z. c #EFF9FC",
"A. c #EEF9FC",
"S. c #F4F4F4",
"D. c #F1FBFE",
"F. c white",
"G. c #FEFFFF",
/* pixels */
"                                                                                                                                ",
"                                                                . #                                                             ",
"                                                                . .                 q.                                          ",
"                                                    ;.. . . . . . . = w z F y.q.y.y.            q.                              ",
"                  F.                ;.;.;.;.;.;.;.;.;.. . . . . . X X - e z                   y.y.  y.y.p.6.y.                  ",
"                F.F.                ;.;.;.;.;.;.;.;.;.. . . . . # # o # : 4                           q.t.y.0.y.                ",
"          F.  F.F.F.              ;.. . . . . . . . . . . . . . . . # : 4 4 : 4 4 q = # & 4 *           w.y.y.y.q.              ",
"            F.F.F.F.              ;.. . . . . . . . . . . . . X X X . . X X $ , = ; : q r q :             y.y.p.                ",
"            F.F.F.F.F.            ;.. . . . . . . . X X X X X + + + . . . . . . . . . . X o $       7.6.q.y.y.y.                ",
"          F.F.F.F.F.F.            ;.. . . . . . + X + j j j j u u u u u u u . . . X X X X X .           y.q.y.y.                ",
"          F.F.F.F.                ;.. . . . . . + + . u u u u u u u u u u u . X X X X X O # 3         y.  q.t.6.                ",
"        F.F.F.F.F.                ;.. . . . . u u . . . . . . . . . . . . X o X X l l # ; O .       y.  y.q.y.                  ",
"        F.F.F.F.                  ;.. . . . . u u . . . . . . . . . . X o X . * # k f # @ @ 7   8.    y.q.                      ",
"        F.F.F.F.  F.              ;.. . . . . u u . . X . . X X X X X X X # 3 o O N f 4 : n v                                   ",
"        F.F.F.                  ;.;.. . . X . i i p u 1 1 1 1 1 p f f M B f i k A H T w C V C b r t                             ",
"        F.F.                  ;.;.;.X o . X . p p p f i 6 6 i 0 l l l l u f A Y E T T C n b 7 w < ;               F.            ",
"        F.F.  F.              :.;.;.X X @ & @ c l B f 2 i 2 8 2 l c f B B T E I E ~ ~ : = & 4 $ O X             F.F.            ",
"        F.    F.                & % # , O $ O * # o & 3 ; < , * 4 , t z S V n C r e & : : = $ . . o       F.  F.F.F.            ",
"                                o * * + : < 3 7 - t 9 b w t z b r C b C C C z y < < $ O . . O # * #         F.F.F.F.            ",
"                                7 > 5 z g Z m n P K L b U K J b n C F r 3 : 3 $ O X . $ * # o . . .         F.F.F.F.F.          ",
"                                  s.s.q.y.y.4.( ^ w.w.R L G G L B M f B A N y.y.y.s l                     F.F.F.F.F.F.          ",
"                                y.w.p.8.y.w.3.T E y.y.h a 8 d a N B B M f u y.y.q.l u                     F.F.F.F.              ",
"                              8.y.y.6.      >.N c y.7.x h h h 8 f u u f l M q.y.x.u u                   F.F.F.F.F.              ",
"                        q.  t.  q.          ,.D M y.y.' ] {  .[ M M [ ] ` ` y.x.Z.u u                   F.F.F.F.                ",
"                    0.t.  i.  y.            :.N M y.q.{ [ ` ` ` u u ` ` ` ` x.Z.G.u u                   F.F.F.F.  F.            ",
"                y.  y.q.y.y.t.            ;.>.u u y.y.` ` ` ` ` u u ` ` j.*.Z.G.F.u u                   F.F.F.                  ",
"              0.  t.y.y.y.q.q.          ;.;.;.u u y.y.` ` ` ` ` u u ` ` ` m.G.F.F.u u                   F.F.                    ",
"                  y.y.y.q.y.          ;.;.;.;.u u y.y.` ` ` ` ` u u ` ` *.D.F.F.G.l.u                   F.F.  F.                ",
"                y.y.y.y.y.q.        ;.;.;.;.;.u u ` ` ` ` ` ` ` y.y.` ` m.F.F.F.m.l.u                   F.    F.                ",
"                  y.y.y.y.        ;.;.;.;.;.;.u u ` ` ` ` ` ` ` y.y.` *.D.F.F.D.*.u u                                   y.      ",
"                  y.y.y.p.0.    ;.;.;.;.;.;.;.u u ` ` ` ` ` ` ` y.y.` m.F.F.F.m.` u u                                 y.y.      ",
"                6.c.f.c.q.b.B.;.;.;.;.;.;.;.;.u u ` ` u u u u u y.y.u G.F.F.D.*.` u u                               y.y.y.      ",
"                V.M.m.h.g.z.;.;.;.;.;.;.;.;.;.u u ` ` u u u u u y.y.u F.F.S.m.` j.u u                           Z.x.y.y.y.      ",
"                  v.v.b.C.n.% . . . . . . . . . . y.y.u u u u u u u u F.F.N.*.` ` . . . . . . . . . . .   F.    b.y.s.y.        ",
"                n.b.F.n.V.v.z o X . . . . . . . . y.y.u u u u u u u u F.S.=.` ` ` . . . . . . . . . . .       Z.x.s.s.x.        ",
"              B.V.F.  y.y.<., ; . . . . . . . . . y.y.u u u u u u u u S.N.u j.` ` . . . . . . . . . . O       b.s.s.s.b.        ",
"            V.Z.F.y.y.q.y.4.F * u u ` ` ` ` ` . . y.y.u u u u u u u u N.=.u V.y.y.. . ` ` ` ` u u f O %       k.s.d.x.Z.        ",
"            F.D.    y.y.y.1.# . u u ` ` ` ` ` . . y.y.u u u u u u u u u u u y.y.y.. . ` ` ` ' p l f X r 0.    y.s.x.b.F.n.      ",
"              y.  y.  5.1.:.X . u u ` ` ` ` ` . . y.y.u u u u u u u u u u u y.y.y.. X } } ' | f p H r b     y.q.q.v.C.          ",
"              q.  3.5.3.,.;.. . u u ` ` ` ` ` . . y.y.u u u u u u u u u u u y.y.y.o X } | [ [ B E l X e   y.q.y.y.6.F.          ",
"              y.1.4.2.,.;.-.r * u u ` ` ` ` ` . . . . . . . . . . . . . . o o o o X $ { { [ X.M u M F R y.y.y.q.y.  n.          ",
"              4.4.<.,.>.>.-.# . u u ` ` ` ` ` . . . . . . . . . . X . o o o o % : : % [ [  .{ B T _ ) ! y.y.y.y.                ",
"            3.5.3.<.-.-.-.;.. . . . . . . . . . . ` ` . X . . o X X X o X :  . .[ O = = 3 w b U Q W ../ 0.0.y.                  ",
"            4.4.4.<.1.-.:.;.X X . X . . X . . . . } } . . X X X X & O : 4 $ [ { { z z K C K U ! W Q P R y.y.y.                  ",
"          ,.2.5.4.1.,.>.>.>.. o X . X . . . . X X } } O & @ O < $ $ ; $ . = o.+.&.U U C J U R C w C F e                         ",
"            1.4.1.1.1.2.-.>.# * O * # @ * @ # # O { { O O $ * o # : @ 3 7 K %.%.$.W ! R b = = 4 v 7 : o                         ",
"              1.2.4.3.<.2.,.: * O O # o o o o # # # o [ X. . . .o.O.+.#.%.@.U W W z w : 3 7 w : $ X X #                         ",
"              2.3.3.1.3.4.1.q q < r : 3 4 : 7 : * , , O.O.O.O.$.#.#.$.$.%.%.C r 4 t 7 ; O . X O ; : : #                         ",
"                    q.                            b C b C K L C F L U r 3 e r w < $ X                                           ",
"                                y.y.y.y.y.y.y.y.0.n b S C m r z 7 3 @ 7 7 < % X X % :                                           ",
"                                                                3 7 : = O X                                                     ",
"                                                                O X . % = *                                                     ",
"                                                                $ * * o . .                                                     ",
"                                                                . . . . . .                                                     ",
"                                                                                                                                ",
"                                                                                                                                ",
"                                                                                                                                ",
"                                                                                                                                ",
"                                                                                                                                ",
"                                                                                                                                ",
"                                                                                                                                ",
"                                                                                                                                ",
"                                                                            y.                                                  ",
"                                                                                                                                "
};
