/* XPM */
static char *_3bcdaf7c71343c8f439d711dec9be98PlnxWgwX5GjX1pGq[] = {
/* columns rows colors chars-per-pixel */
"64 64 5 1 ",
"  c #0D5722",
". c #536B03",
"X c #6F9107",
"o c #88B309",
"O c #F5E49C",
/* pixels */
"ooooooooooooooooooooooooooooooooooooooooooooooooooooooooo oooooo",
"oooooo oooooooooooooooooo.oooooooo.oooooooooooooooooo oo ooooooo",
"oo oo oooooooooooooo ooooooooooooooo oooooooOooooooooo o oXooooo",
"ooo o oXooOooooo oo oooooooooooo oo oooooooooo oooooXo oXXoooooo",
"oXo oXXoooooooooo o oXooooooooooo o oXoooo oo oooooooXXooooooooo",
"ooXXoooooooooooXo oXXoooooooOooXo oXXoooooo o oXoooooooooooooooo",
"ooooooooooooooooXXooooooooooooooXXoooooooXo oXXooooooooooooooOoo",
"oooooooooooo.oooooooooooooooooooooooooooooXXoooooooooooooooooooo",
"oooooooo ooooOooooooooooooo oooooooooooooooooooooooooooooooooooo",
"oooo oo ooooooooooooooo oo ooooooo.ooooooooooooooooooooooooooooo",
"ooooo o oXoooooooooooooo o oXoooooooooooooooooOooooo.oooooo oooo",
"oooXo oXXoooooooooooooXo oXXooooooooooooooooooooooooooo oo ooooo",
"ooooXXoooooooooooooooooXXooooooooooooooooooooooooooooooo o oXooo",
"oo.ooooooooooooooo ooooooooooooooooo oooooooooooooooooXo oXXoooo",
"oooooooooooooo oo oooooooooooooo oo oooooooooooo ooooooXXooooooo",
"ooooooooooooooo o oXooooooooooooo o oXoooooo oo oooooooooooooooo",
"oooooooooooooXo oXXooooooooooooXo oXXoooooooo o oXoooooooooooooo",
"ooo ooooOoooooXXooooooooOoooooooXXoooooooooXo oXXooooooooooooooo",
"oo oooooooooooooooooooooOoooooooooooooooooooXXoooooooo.oooooooo ",
" o oXooooooooooooooooooo.ooooooooooooooooooooooooooooooooooooooo",
" oXXooooo.ooooooooooooooooooooooooooooooooooooooooooooooooooooXo",
"XooooooooooooooOooooooooooooooooooooOooooooooooooooooooooooooooX",
"ooooooooooooooo.ooooooooo ooooooooooooooooooooooooooooooOooooooo",
"oooooooooo oooooooooo oo oooooooooooo oooooooooooooooooooooooooo",
"oooooo oo oooooooooooo o oXoooooo oo ooooo.oooooooo ooooooo.oooo",
"ooooooo o oXooooooooXo oXXoooooooo o oXoooooooo oo ooooooooooooo",
"oooOoXo oXXooooooooooXXoooooooooXo oXXoooooooooo o oXooooooooooo",
"ooooooXXooooooooooooooooooooOooooXXoooooooooooXo oXXoooooooooooo",
"oooooooooooooooooooooooooooooooooooooooooooooooXXooooooooooooooo",
"oooooooooooooooooooooooooooooooooooooooooooooooooooooooooooooooo",
"oooooo oooooooOoooooooooooooooooooooooooooooo.oooooooooooooo ooo",
"oo oo oooooooooooooo ooooooooooooooooooooo ooooooooooooo oo oooo",
"ooo o oXoooooooo oo oooooooooo ooooooo oo ooooooooooooooo o oXoo",
"oXo oXXoooooooooo o oXoooo oo ooooooooo o oXoooooooooooXo oXXooo",
"ooXXoooooooooooXo oXXoooooo o oXoooooXo oXXoooooooooooooXXoooooo",
"ooooooooooooooooXXoooooooXo oXXoooooooXXoooooooooooooooooooooooo",
"ooooooooooooooo.ooooooooooXXooooooooooooooooooooOooooooooooooooo",
"oooooooooo ooooooooooooooooooooooooooooooooooooooooooooooooooooo",
"o.oooo oo oooooooooooooooooooooooooOoooooooo oooooooooooooooOooo",
"ooooooo o oXooooooo oooooooooooooooooooo oo ooooooooo.oooooooooo",
"oooooXo oXXoooo oo oooooooooooooooooooooo o oXoooooooooooooooooo",
"ooooooXXoooooooo o oXooooooooooooooooooXo oXXooooooooooooooooooo",
"ooooooooooooooXo oXXooooooooooooo ooooooXXoooooooooooooooo ooooo",
"oooOoooooooooooXXoooooooOoooo oo ooooooooooooooooooooo oo oooooo",
"oooooooooooooOoooooooooooooooo o oXoooooooooooooooooooo o oXoooo",
"oooooooooooooooooooooo oooooXo oXXoooooooooooo ooooooXo oXXooooo",
"o.oooooooooooooooo oo oooooooXXooooooOoooo oo ooooooooXXoooooooo",
"oooooooo oooooooooo o oXooooooooooooooooooo o oXoooooooooooooooo",
"oooo oo oooooooooXo oXXooooooooooooooooooXo oXXooooooooooooooooo",
"ooooo o oXooooooooXXoooooooooooooo oooooooXXoooooooooooooooooooo",
"oooXo oXXooooooooooooooooooooo oo oooooooooooooooooooooooooooooo",
"ooooXXoooooooooooooooo.oooooooo o oXoo.oooooooooo oooooooooooooo",
"ooooooooooooo.oooooooo ooooooXo oXXoooooooooo oo ooooooooooo ooo",
"oooooooooooooooooo oo ooooooooXXoooooooooooooo o oXooooo oo oooo",
"ooooooooooooooooooo o oXooooooooooooooooooooXo oXXooooooo o oXoo",
"ooooooooooooOooooXo oXXooooooooooooooooooooooXXooooooooXo oXXooo",
"ooooo.ooooooooooooXXooooooooooooooooooOoooooooooooooooooXXoooooo",
"oooooooooooooooooooooooooOoooooooooooooooooooooooooooooooooooooo",
"ooooooooooooooooooo ooooooooooo oooooooooooooo ooooooOoooooooooo",
"ooooooo ooooooo oo oooooooo oo ooooooooooo oo oooooooooooooooooo",
"ooo oo ooooooooo o oXooooooo o oXoo.ooooooo o oXoooooooooooooooo",
"oooo o oXo.oooXo oXXooooooXo oXXoooooooooXo oXXooooooooooooooooo",
"ooXo oXXoooooooXXooooo.ooooXXoooooooooooooXXooooooooooooo.oooooo",
"oooXXooooooooooooooooooooooooooooooooooooooooooooooooooooooooooo"
};
