/* XPM */
static char *_525447cccc248ccb2f5a136dcbe846b2joJxjMbOo6io4sw[] = {
/* columns rows colors chars-per-pixel */
"65 64 243 2 ",
"   c None",
".  c #221D2D",
"X  c #231E33",
"o  c #281F37",
"O  c #1D283C",
"+  c #28242C",
"@  c #392928",
"#  c #232235",
"$  c #24233B",
"%  c #2A253D",
"&  c #2B293D",
"*  c #272536",
"=  c #372936",
"-  c #3B333B",
";  c #2D333D",
":  c #472B28",
">  c #49352C",
",  c #48323A",
"<  c #573839",
"1  c #50322D",
"2  c #643C33",
"3  c #704A3C",
"4  c #1B2C4A",
"5  c #192F58",
"6  c #252342",
"7  c #2B2643",
"8  c #2C2A43",
"9  c #2D2A4C",
"0  c #282949",
"q  c #322B43",
"w  c #332C4B",
"e  c #322646",
"r  c #2C344B",
"t  c #353246",
"y  c #3A334C",
"u  c #383349",
"i  c #2D2D57",
"p  c #342D53",
"a  c #342E58",
"s  c #2B345D",
"d  c #2F3453",
"f  c #353354",
"g  c #3B3454",
"h  c #3B3B52",
"j  c #35325B",
"k  c #3D3B5C",
"l  c #38355B",
"z  c #1E3D6C",
"x  c #352E62",
"c  c #2E3565",
"v  c #353465",
"b  c #3B336B",
"n  c #3A3568",
"m  c #221E41",
"M  c #443646",
"N  c #543A43",
"B  c #423D5E",
"V  c #463855",
"C  c #443865",
"Z  c #443B72",
"A  c #3B4459",
"S  c #394A6D",
"D  c #394678",
"F  c #2A4476",
"G  c #44444D",
"H  c #464348",
"J  c #584549",
"K  c #434354",
"L  c #46475B",
"P  c #534E56",
"I  c #534E59",
"U  c #5D4B58",
"Y  c #4E5258",
"T  c #535156",
"R  c #535059",
"E  c #745848",
"W  c #7A5959",
"Q  c #6E4B50",
"!  c #474868",
"~  c #574866",
"^  c #54536C",
"/  c #595669",
"(  c #484677",
")  c #594974",
"_  c #595777",
"`  c #485171",
"'  c #65556D",
"]  c #675976",
"[  c #735869",
"{  c #696677",
"}  c #7B656F",
"|  c #7D635D",
" . c #804D39",
".. c #85594C",
"X. c #886455",
"o. c #976653",
"O. c #94634E",
"+. c #8A6A68",
"@. c #9A786D",
"#. c #967975",
"$. c #906C73",
"%. c #A37B66",
"&. c #AF7776",
"*. c #A6715D",
"=. c #C77C78",
"-. c #BC8972",
";. c #CD8E7B",
":. c #F4997D",
">. c #374A84",
",. c #3B548C",
"<. c #3A5895",
"1. c #2E4D84",
"2. c #3C64A8",
"3. c #444881",
"4. c #52598E",
"5. c #685E86",
"6. c #705688",
"7. c #6C6989",
"8. c #746688",
"9. c #787585",
"0. c #787B99",
"q. c #475BA3",
"w. c #5271B6",
"e. c #7E77A4",
"r. c #686EA8",
"t. c #4D639E",
"y. c #5379CE",
"u. c #637DC7",
"i. c #856989",
"p. c #8F7894",
"a. c #837CAC",
"s. c #9275A6",
"d. c #AA7B9F",
"f. c #7785AE",
"g. c #5B89D7",
"h. c #5784D4",
"j. c #6581CB",
"k. c #6D84CA",
"l. c #5286E8",
"z. c #5E9AF9",
"x. c #5E90E1",
"c. c #6596E6",
"v. c #6598F5",
"b. c #678FED",
"n. c #5BA1FE",
"m. c #8D8694",
"M. c #898897",
"N. c #97899E",
"B. c #B7898C",
"V. c #AE8D91",
"C. c #898AA5",
"Z. c #9A98A8",
"A. c #9999B8",
"S. c #918AAD",
"D. c #A597A7",
"F. c #A990B3",
"G. c #9EA2BC",
"H. c #9BA0AB",
"J. c #A7A6B9",
"K. c #B8A8B8",
"L. c #AEACB5",
"P. c #D6998A",
"I. c #D4999A",
"U. c #C6928A",
"Y. c #E89B8A",
"T. c #E29D98",
"R. c #DBA38C",
"E. c #DAA598",
"W. c #E4A38C",
"Q. c #E8A388",
"!. c #ECAC9B",
"~. c #E8A995",
"^. c #E9B59C",
"/. c #F5B69C",
"(. c #C7ABB5",
"). c #D6B2A7",
"_. c #F1B8A0",
"`. c #E9B9AE",
"'. c #D89EA2",
"]. c #F2C39E",
"[. c #FCCCAB",
"{. c #F7C6A8",
"}. c #FCD2AD",
"|. c #FDCDB4",
" X c #F6C7B3",
".X c #FBD1B3",
"XX c #F8D2B8",
"oX c #EAC4B0",
"OX c #999AC4",
"+X c #9798C0",
"@X c #B798C6",
"#X c #A699C5",
"$X c #A6A6C9",
"%X c #BFADC3",
"&X c #BCACCB",
"*X c #B9BACA",
"=X c #AEAED3",
"-X c #B2B2D4",
";X c #BABBD4",
":X c #BCBCDB",
">X c #B5B9D7",
",X c #B2ABCC",
"<X c #B9BBE1",
"1X c #9EA0C3",
"2X c #CCB3CF",
"3X c #D4ADE5",
"4X c #C79CD5",
"5X c #BCC0D4",
"6X c #B7C2CF",
"7X c #BEC5E7",
"8X c #C2C3DA",
"9X c #C6C7DA",
"0X c #D4CAD7",
"qX c #D2D4DD",
"wX c #D1D0D7",
"eX c #CCC9D3",
"rX c #E7D5D7",
"tX c #F2DAD3",
"yX c #CBCEE5",
"uX c #C6C8E5",
"iX c #CED3EC",
"pX c #CCD2E2",
"aX c #D2D3E5",
"sX c #D4DAEC",
"dX c #D8D8E9",
"fX c #CAD3F2",
"gX c #D9DCF1",
"hX c #DEE2EB",
"jX c #DBE4F2",
"kX c #E5E7EC",
"lX c #F9F7EE",
"zX c #ECEDF4",
"xX c #EAEEF9",
"cX c #E5E9F5",
"vX c #EDF3F6",
"bX c #EDF4FB",
"nX c #E1F3F8",
"mX c #F3F4F5",
"MX c #F2F4FB",
"NX c #FCFDFC",
"BX c #F9F9F8",
"VX c #EFF0F6",
"CX c #EEE2E2",
/* pixels */
"                                        . * B C C C k % X                                                                         ",
"                                        u G ^ ^ ^ ^ ^ h t                                                                         ",
"                                    . u *XqXqXqXaXaXqX*XZ.; & B B k % .                                                           ",
"                                    R { wXzXbXbXzXxXcXsX*X/ ^ _ 5.5.^ L                                                           ",
"                                  8 J.kX8X9XbXcXsXiXiXiXiXuX=XS.OX=X$XS.t & V q X                                                 ",
"                                  g J.hX;X<XjXgXiXiXiX:X>XuXuX;XuXyXiX;X7.7.N.M.9.~                                               ",
"                                  ! G.pX>X<XiXiXiXiXuXG.A.-XyXxXbXbXbXcX:XuXxXvXkX{ $                                             ",
"                                  ! G.9X$X$X:X:X<X=X$X8XpXsXkXMXbXbXbXbXjXjXMXbXbX8XZ.K                                           ",
"                                  ! J.pXJ.1X;X>X=X1X$XgXbXbXMXMXbXbXbXbXxXxXMXbXbXNXkXL #                                         ",
"                                  ! ,XzXhXjXcX8XA.:XgXxXMXMXbXbXmXlXmXzX9XuXsXzXlXNXhX_ h                                         ",
"                                  K *XMXMXbXcX9XJ.aXMXBXmXmXxXjXzXlXzXsX-X<XuXkXlXlXhX_ B                                         ",
"                                  8 L.NXBXzX5XqXmXBXNXNXNXNXhX*XdXBX0X-XA.OX-XdXNXBXdX_ k                                         ",
"                                  * M.L.zXzX;XaXNXNXNXNXBXkX0X(.rXBXeX(.D.D.(.0XhXxXkXC.0.                                        ",
"                                    * K wXcX;XaXNXNXNXNXzX2X(.'.rXmX`.R.E.Y.T.(.>XjXzXaXyX                                        ",
"                                    t h 9.M.A.8XMXBXmXdX0X(.V.i.m.D.I.Q.Y.:.Y.V.0.pXVXdXaX                                        ",
"                                    B k 0 L S.;XbXbXxX8X%XE.B.' ~ ' B.P.W.Q.W.#.' 5XmXdXaX                                        ",
"                                    B ! 7.f.$XuXbXbXxX8XK.R.P.U.B.B.+.+.^.{.{.E.B.rXzXsXaX                                        ",
"                                    B ( a.OX-XyXbXbXxX8X%XR.W.~.~.E.$.$.oXXXXX_.~.tXbXsXaX                                        ",
"                                    B ( a.OX-XyXbXbXxX8X%XE.!.[.[.[.oX`.|.XX|.[.[.tXnXsXaX                                        ",
"                                    f C e.OX-XyXbXbXxX8X%XE.~.].].].[.|.|.|.|.{.{.tXjXsXaX                                        ",
"                                    o p e.OX-XyXbXbXxX8X%XE.W.W.W.W.{..X.X[.[.^.E.0XaXaXaX                                        ",
"                                      9 ^ 7.A.A.M.*XgX:X&XI.~././._. X|.}.}.[.^.'.2XaXaXaX                                        ",
"                                        . V C._ 6 C.aX:X&XI.!.[.}..X|.|.|.}.[.!.I.2XiXyX9X                                        ",
"                                            K r $ C.aX;X2XT.!.[.}..X.X.X|..X}.-.Q K.uX0.7.                                        ",
"                                            # # * C.iX;XK.U.R.{.{. X[.{.^.).).#.J L.5X_ k                                         ",
"                                            # . * C.fX:XD.3 O.R.~.~.W.;.3 J ) e.$X8X5X_ k                                         ",
"                                            # = N Z.fX7XA., E E.!.!.!.U.> q b 4.C.6X6X^ h                                         ",
"                                            # J @.(.iXfX$Xt |  X|.|.|.E.- 7 C p t H.;X! &                                         ",
"                                          t J X.%.V.D.C.7.j I #.#.#.#.} l x b 9 * { p._                                           ",
"                                        X M @.%.%.X.W k i v p % $ $ $ 7 C Z v q + = w                                             ",
"                                        X M @.*.o.3 J 4.,.j p i s c i C F.e.9 = : @ = @                                           ",
"                                        X M +.o.O. .Q w.w.D v v v v j ) 4XA.s h J < < 1 <                                         ",
"                                            1 ..;.;.B.j.l.g.t.i w 9 9 j ) t.j.g.f.V.;.;.%.1 > < < < : @                           ",
"                                            E %.E.W.I.k.l.z.y.>.D D D D c q.b.z.c.S.=.Y.&.: - N Q W , =                           ",
"                                        N W `. X X!.I.k.l.z.v.c.c.c.c.u.c ,.b.v.c.` 2 ;.&.= q V p.U.~ p $ #                       ",
"                                      C V [ oX X_.-.+._ 2.l.z.z.n.z.y.t.i 1.g.y.w.! > O.W e 0 w [ i.( x $ &                       ",
"                                $ 6 p v b ] oX_.P...@ * c y.g.c.v.b.q.j 6 F y.q.n     : = q $ # p C n f * I G.                    ",
"                              + e i 0 0 b ~ | X.E 1 + & g 3.3.>.<.q.>.v i ( r.` &       , M q 7 w w 8 - J U '                     ",
"                              X 9 n y - l f @ : @ + # u V V y e i n ( ( Z 6.s.) *         H M e 8 & # , W Q M                     ",
"                              O 0 n $.d.M O       # % / 8.7.8.i.~ C A.,Xa.d.3XF.] y o               q V } } ]                     ",
"                              * K [ &.&., +       w V ] 5.5.8.8.~ V N.@X#X@X4Xs.5.y o               w ~ N.N.N.                    ",
"                              < @.`.X.1 N <     # ~ 8.( C k g 9 6 $ 7 ~ 3X@X~ V g w 8                   cXcXcX                    ",
"                              < X.B.E @ N       # B ] Z v q 7 m 6 0 6 g p.8.q & t q 8                   MXbXbX                    ",
"                              < N N             # p C b v $ o o 9 j l f $ # # & t q 8                   vXvXvX                    ",
"                                                # ~ 8.6.) 8 0 9 9 0 0 % # # X $ % & 8                     MXBX                    ",
"                                                * ] s.i.] p w f w 8 8 & # # # $ $ 7 8                       NX                    ",
"                                                # y B V h f w q ] M.m.9.& X # 7 w f f 8 &                                         ",
"                                              8 $ 7 9 8 8 f h L 9.L.L.Z.I t $ 0 l l j 9 8                                         ",
"                                            o 8 f j a w 8 0 ^ Z.J.L.L.L.D.9.$ 0 j j j 9 8                                         ",
"                                            # 8 l v x w q y / m.m.m.m.m.m.{ 6 0 r j i 9                                           ",
"                                            # & f l l w t P R R R R R R T K 6 6 & 8 0                                             ",
"                                      I R M $ w B g t h A I R R R R R R T G # q g w q G T T T R                                   ",
"                                    T T R G $ x 3.j ; L ^ R R R R R I I R H # j 3.n s L Y T T T                                   ",
"                              T T T T T T G O >.u.<.A P U I R R R R R R R G O ,.j.h.w.` ! I T R R P P R                           ",
"                              T T T T T R G 4 ,.g.2.S I U I R R R R R R R A 4 <.g.x.h.<.S Y T R R T T R                           ",
"                          I R R R R R R R K 4 5 z F S ! P T R R R R R T R A 4 5 z 1.<.1.S Y T R I P T R I R                       ",
"                          P R R R R R R R L s r r A ! ! Y R R R R R R R T L d r r A ! S L Y T R ~ I T T R I                       ",
"                          P R R R R R R R R P P P I R R R R R R R R R R R I I I I I R R R R R R R R R T I I                       ",
"                          R R R R R R T T T R R R R R R R R R R R R R R R R R R R R R T T T R R R R T R I                         ",
"                              R R T T T T T R R R R R T T R R R R R R R R R R R R R R T T T T R R R I R                           ",
"                                    T T T T R R R T T T T R R R R R R R R R R R R R R T T T T R I                                 ",
"                                    I I T R I R R R T T T R R R R R R R R R R R R R R T T I R R                                   ",
"                                              R R R T T T R R R R R R R R R R R R R R                                             ",
"                                                R R T T T R R R R R R R R R R R R R R                                             "
};
