/* XPM */
static char *_8e1cdda22534795e6ce77e1a666a9e3En2JZWbWsb139vJc[] = {
/* columns rows colors chars-per-pixel */
"64 64 256 2 ",
"   c black",
".  c #010101",
"X  c #020202",
"o  c gray1",
"O  c #040404",
"+  c gray2",
"@  c #060606",
"#  c #070707",
"$  c gray3",
"%  c #090909",
"&  c gray4",
"*  c #0B0B0B",
"=  c #0C0C0C",
"-  c gray5",
";  c #0E0E0E",
":  c gray6",
">  c #101010",
",  c #111111",
"<  c gray7",
"1  c #131313",
"2  c gray8",
"3  c #151515",
"4  c #161616",
"5  c gray9",
"6  c #181818",
"7  c #191919",
"8  c gray10",
"9  c #1B1B1B",
"0  c gray11",
"q  c #1D1D1D",
"w  c #1E1E1E",
"e  c gray12",
"r  c #202020",
"t  c gray13",
"y  c #222222",
"u  c #232323",
"i  c gray14",
"p  c #252525",
"a  c gray15",
"s  c #272727",
"d  c #282828",
"f  c gray16",
"g  c #2A2A2A",
"h  c gray17",
"j  c #2C2C2C",
"k  c #2D2D2D",
"l  c gray18",
"z  c #2F2F2F",
"x  c gray19",
"c  c #313131",
"v  c #323232",
"b  c gray20",
"n  c #343434",
"m  c #353535",
"M  c gray21",
"N  c #373737",
"B  c gray22",
"V  c #393939",
"C  c #3A3A3A",
"Z  c gray23",
"A  c #3C3C3C",
"S  c gray24",
"D  c #3E3E3E",
"F  c #3F3F3F",
"G  c gray25",
"H  c #414141",
"J  c gray26",
"K  c #434343",
"L  c #444444",
"P  c gray27",
"I  c #464646",
"U  c gray28",
"Y  c #484848",
"T  c #494949",
"R  c gray29",
"E  c #4B4B4B",
"W  c #4C4C4C",
"Q  c gray30",
"!  c #4E4E4E",
"~  c gray31",
"^  c #505050",
"/  c #515151",
"(  c gray32",
")  c #535353",
"_  c gray33",
"`  c #555555",
"'  c #565656",
"]  c gray34",
"[  c #585858",
"{  c gray35",
"}  c #5A5A5A",
"|  c #5B5B5B",
" . c gray36",
".. c #5D5D5D",
"X. c gray37",
"o. c #5F5F5F",
"O. c #606060",
"+. c gray38",
"@. c #626262",
"#. c gray39",
"$. c #646464",
"%. c #656565",
"&. c gray40",
"*. c #676767",
"=. c #686868",
"-. c DimGray",
";. c #6A6A6A",
":. c gray42",
">. c #6C6C6C",
",. c #6D6D6D",
"<. c gray43",
"1. c #6F6F6F",
"2. c gray44",
"3. c #717171",
"4. c #727272",
"5. c gray45",
"6. c #747474",
"7. c gray46",
"8. c #767676",
"9. c #777777",
"0. c gray47",
"q. c #797979",
"w. c gray48",
"e. c #7B7B7B",
"r. c #7C7C7C",
"t. c gray49",
"y. c #7E7E7E",
"u. c gray50",
"i. c #808080",
"p. c #818181",
"a. c gray51",
"s. c #838383",
"d. c #848484",
"f. c gray52",
"g. c #868686",
"h. c gray53",
"j. c #888888",
"k. c #898989",
"l. c gray54",
"z. c #8B8B8B",
"x. c gray55",
"c. c #8D8D8D",
"v. c #8E8E8E",
"b. c gray56",
"n. c #909090",
"m. c gray57",
"M. c #929292",
"N. c #939393",
"B. c gray58",
"V. c #959595",
"C. c gray59",
"Z. c #979797",
"A. c #989898",
"S. c gray60",
"D. c #9A9A9A",
"F. c #9B9B9B",
"G. c gray61",
"H. c #9D9D9D",
"J. c gray62",
"K. c #9F9F9F",
"L. c #A0A0A0",
"P. c gray63",
"I. c #A2A2A2",
"U. c gray64",
"Y. c #A4A4A4",
"T. c #A5A5A5",
"R. c gray65",
"E. c #A7A7A7",
"W. c gray66",
"Q. c #A9A9A9",
"!. c #AAAAAA",
"~. c gray67",
"^. c #ACACAC",
"/. c gray68",
"(. c #AEAEAE",
"). c #AFAFAF",
"_. c gray69",
"`. c #B1B1B1",
"'. c #B2B2B2",
"]. c gray70",
"[. c #B4B4B4",
"{. c gray71",
"}. c #B6B6B6",
"|. c #B7B7B7",
" X c gray72",
".X c #B9B9B9",
"XX c gray73",
"oX c #BBBBBB",
"OX c #BCBCBC",
"+X c gray74",
"@X c gray",
"#X c gray75",
"$X c #C0C0C0",
"%X c #C1C1C1",
"&X c gray76",
"*X c #C3C3C3",
"=X c gray77",
"-X c #C5C5C5",
";X c #C6C6C6",
":X c gray78",
">X c #C8C8C8",
",X c gray79",
"<X c #CACACA",
"1X c #CBCBCB",
"2X c gray80",
"3X c #CDCDCD",
"4X c #CECECE",
"5X c gray81",
"6X c #D0D0D0",
"7X c gray82",
"8X c #D2D2D2",
"9X c LightGray",
"0X c gray83",
"qX c #D5D5D5",
"wX c gray84",
"eX c #D7D7D7",
"rX c #D8D8D8",
"tX c gray85",
"yX c #DADADA",
"uX c gray86",
"iX c gainsboro",
"pX c #DDDDDD",
"aX c gray87",
"sX c #DFDFDF",
"dX c gray88",
"fX c #E1E1E1",
"gX c #E2E2E2",
"hX c gray89",
"jX c #E4E4E4",
"kX c gray90",
"lX c #E6E6E6",
"zX c #E7E7E7",
"xX c gray91",
"cX c #E9E9E9",
"vX c #EAEAEA",
"bX c gray92",
"nX c #ECECEC",
"mX c gray93",
"MX c #EEEEEE",
"NX c #EFEFEF",
"BX c gray94",
"VX c #F1F1F1",
"CX c gray95",
"ZX c #F3F3F3",
"AX c #F4F4F4",
"SX c gray96",
"DX c #F6F6F6",
"FX c gray97",
"GX c #F8F8F8",
"HX c #F9F9F9",
"JX c gray98",
"KX c #FBFBFB",
"LX c gray99",
"PX c #FDFDFD",
"IX c #FEFEFE",
"UX c white",
/* pixels */
"jXkXkXjXjXjXjXkXjXjXjXjXjXjXjXjXjXjXjXjXjXjXjXjXjXjXjXjXsX>X/.F.pXjXjXjXjXjXjXjXjXjXjXjXjXjXjXjXjXjXjXjXjXjXjXjXjXjXkXsX'.y.l.(.",
",X X X X|.@X<X X X X X X X X X X X X X X X X X X X X@X1X'.z.%.1.,X2X X X X X X X X X X X X X X|.|.|.|.|.|.|. X X X X|.P.' w ] H.",
"`.P.F.n.b.C.P.n.b.b.b.b.b.b.b.b.b.b.b.b.b.b.b.b.b.b.V.I.k.+.Q c.:X{.J.n.b.b.b.b.b.b.b.b.b.b.M.J.L.L.L.L.L.L.H.m.b.n.l.$.v b L.3X",
"D.m.x.i.i.i.y.u.i.i.i.i.i.i.i.i.i.i.i.i.i.i.i.i.i.i.i.i.8.R K A.*XL.v.p.i.i.i.i.i.i.i.i.i.i.a.v.n.n.n.n.n.n.v.a.i.i.w./ v L #X7X",
"C.i.i.i.i.f.z.i.i.i.i.i.i.i.i.i.i.i.i.i.i.i.i.i.i.i.i.p.8.R U U.-XH.a.i.i.i.i.i.i.i.i.u.i.i.i.i.i.u.u.u.u.i.r.>.t.p.w./ c K @X7X",
"C.p.i.i.i.d.z.i.i.i.i.i.i.i.i.i.i.i.i.i.w.<.u.i.i.i.i.p.8.R E }.;XH.a.i.i.i.i.i.i.i.s.x.p.i.i.i.i.i.i.i.i.i.t.<.t.p.q./ c K @X7X",
"C.p.i.i.i.i.i.i.i.i.i.i.i.i.i.u.i.i.i.i.e.1.u.i.i.i.i.p.8.R / :X>XH.a.i.i.i.s.c.p.i.s.z.p.i.i.i.i.i.i.i.i.u.i.p.i.s.j._ v K @X7X",
"C.p.i.i.i.i.i.i.i.i.i.i.i.i.d.x.p.i.i.i.i.i.i.i.i.i.i.p.8.R ^ :X>XH.a.i.i.i.s.x.p.i.i.u.i.i.i.i.i.i.i.i.s.c.a.i.i.a.h.) v K @X7X",
"C.p.i.i.i.i.i.i.q.,.u.i.i.i.d.z.i.i.i.i.i.i.i.i.i.i.i.p.8.R ^ :X>XH.a.i.i.i.i.i.i.s.c.p.i.i.i.i.i.i.p.p.s.z.p.i.i.i.w./ v L oXoX",
"C.p.i.i.i.i.i.i.w.1.u.i.i.i.i.u.i.i.i.i.i.i.i.i.i.i.i.p.8.R ^ :X>XH.a.i.i.i.i.i.i.s.z.p.i.i.i.i.i.s.c.a.i.u.i.i.p.t.&.! v L  XE.",
"C.i.f.c.i.i.i.i.i.p.i.i.i.u.i.i.i.i.i.i.i.i.i.i.i.i.i.p.8.R ^ :X>XH.a.i.i.i.i.i.i.i.u.i.i.i.i.u.i.s.c.a.p.i.i.i.p.t.=.! v L  XE.",
"C.p.f.z.i.i.i.i.i.i.i.i.f.x.p.i.i.i.p.w.&.:.u.i.i.i.i.p.8.R ^ :X>XH.a.i.i.i.i.i.i.i.i.i.i.i.s.c.a.i.i.t.>.y.i.i.i.i.e./ v L oX@X",
"l.p.i.i.i.i.i.i.i.i.i.i.d.l.i.i.i.i.p.e.;.<.u.i.i.i.i.p.8.R ^ :X>XH.a.i.p.p.i.i.i.i.i.i.i.i.s.z.p.i.p.t.<.y.i.i.i.t.&.! v L oXoX",
"i.p.p.p.p.p.p.p.p.p.p.i.i.u.i.i.i.i.i.i.p.i.i.i.i.i.i.p.9.R / >X>XH.s.d.v.a.i.i.i.i.i.i.i.i.i.i.i.p.i.i.p.i.i.i.i.t.;.~ v L .XE.",
"%.&.&.&.&.&.&.&.&.%.,.i.p.p.p.p.p.p.p.i.p.p.p.p.p.p.e.*.+.R Y E.;XJ.s.d.x.a.p.p.p.p.p.p.p.p.p.t.=.&.&.-.y.p.p.p.p.y.$.H v F V.N.",
"A A A A A A A A S S U $.&.&.&.&.&.%.%.%.%.%.%.%.%.&.+./ W A N +.C.7.*.&.&.&.&.%.%.%.%.%.%.&.&.@./ ~ ~ ) #.&.%.%.&.+.G l e u R / ",
"j.j.j.j.j.j.k.t.' A v Z S S D D S A Z Z Z Z Z Z Z Z Z A M w 9 g ] D Z Z Z Z Z Z Z Z Z Z A A S D D D D S A Z Z Z Z C z v T ` p.j.",
"9X9X9X9X9X9X0X<X~.C.x.d.>.) x C { *.j.k.k.l.l.l.l.l.l.l.h.r.e.p.B.z.l.l.l.l.l.l.l.l.l.l.g.1.[ b m [ #.f.l.l.k.k.l.l.l.b.!.].5X0X",
"{.{.{.{.{.{.{.}.|. X.X).s.[ =.M.(. X8X0X3X.X X X X X X X X.X.X X X X X X X X X X X X X X'.c.O.C %.E.{.6X0X9X0X6XoX X X X|.}.{.{.",
"c.c.c.c.c.c.c.c.c.c.v.d.] ~ /. X}.|.`.U.J.v.c.c.c.c.c.c.c.c.c.c.c.c.c.c.c.c.c.c.c.c.c.c.z.q.^ _ ~.1X.X}.].Y.U.L.b.c.c.c.c.c.c.x.",
"u.u.u.u.i.i.u.u.u.i.q.O.I { $XI.F.v.l.u.u.u.u.u.i.u.u.u.u.u.u.u.u.u.i.u.u.u.u.u.u.u.u.u.i.q.^ ] %X'.n.c.z.i.u.u.u.u.u.u.u.u.u.u.",
"i.i.p.0.>.i.i.i.i.p.6.( I { #XJ.z.p.i.i.i.i.i.i.d.c.p.i.i.i.i.i.i.i.d.c.p.i.i.i.i.i.i.i.p.q.Q E oXL.s.i.i.i.i.i.i.i.i.i.i.i.i.u.",
"i.i.p.w.3.i.i.i.i.p.6.( I { #XF.p.i.i.i.w.:.u.i.s.l.p.i.i.i.i.i.i.i.s.l.p.i.e.;.y.i.i.i.p.q.! E oXP.s.i.i.i.s.b.a.i.r.*.*.t.i.u.",
"i.i.i.i.p.p.i.i.i.p.6.( P { #XF.p.i.i.i.e.2.u.i.i.u.i.i.i.i.i.i.i.i.i.u.i.i.r.2.y.i.i.i.p.q.! E oXP.s.i.i.i.a.z.a.i.t.,.,.y.i.u.",
"p.i.i.i.p.i.p.q.>.i.6./ P { #XF.p.i.i.i.i.p.i.i.i.i.i.i.p.p.i.i.i.i.i.u.i.i.i.p.i.u.i.i.p.q./ { OXL.s.i.i.i.i.i.i.i.i.p.p.i.i.u.",
">.i.i.g.v.p.p.e.3.i.6.W B [ #XF.p.i.i.i.i.i.i.i.i.i.p.f.v.p.i.i.i.i.d.v.p.i.i.i.d.v.p.i.p.0.) $.@XL.s.i.i.i.i.i.i.i.i.i.i.i.i.u.",
"4.i.p.d.l.p.i.i.i.p.6.~ S [ #XF.p.i.i.f.c.p.i.i.i.i.p.d.z.p.i.i.i.i.s.l.p.i.i.i.s.l.p.i.p.q.^ ' OXL.s.i.i.i.i.i.s.b.a.i.i.i.i.u.",
"p.i.i.i.p.p.0.>.u.i.6.Q V [ #XF.p.i.i.s.k.p.i.i.i.i.i.i.i.p.i.i.i.i.i.u.i.i.i.i.i.u.i.i.p.q.Q W oXL.s.i.i.i.i.i.a.z.a.i.i.i.i.u.",
"i.i.i.i.i.q.&.3.u.p.7.R f R #XF.p.i.i.i.u.i.i.i.i.i.i.i.i.i.i.w.:.y.i.i.i.i.i.i.i.i.i.i.p.q.! E oXP.s.i.i.i.e.;.t.i.i.i.i.p.i.i.",
"i.i.i.i.p.e.4.i.p.q.o.T a G @XF.p.i.i.i.i.i.i.i.i.i.i.i.i.i.i.r.3.u.i.i.i.i.i.i.i.i.i.p.r.#.E W oXP.s.i.i.i.y.,.*.t.i.i.p.s.v.s.",
"#.#.#.#.#.#.$.#.$...^ Y s C J.2.#.#.#.#.#.#.#.#.#.#.#.#.#.#.#.#.#.#.#.#.#.#.#.#.#.#.#.#.O./ R P Z.A.-.#.*.y.p.y.3.y.i.i.p.a.l.s.",
"~ ~ ~ ~ ~ ~ ~ ~ R A A C a i ^ S Z Z Z Z Z Z Z Z Z A A A Z Z Z Z Z Z Z Z Z Z Z Z Z Z Z Z Z A V m ` y.` ~ ( +.@.#.$.$.#.@.#.@.@.@.",
"Z A Z Z Z Z Z Z P >.n.m.v.k.n.m.m.m.m.z.7.1.@.} P C w e B ..;.v.M.m.M.M.M.M.m.m.m.m.m.m.m.M.k.%...Q S F ! ~ ~ ~ ~ ~ ^ ^ ~ ! ! ! ",
"M.M.M.M.M.M.M.M.D.XX8X9X9X0X9X9X9X9X9X5X%X+X[.).I.m.! v 1.(.XX2X|.{.{.{.{.[.oX7X9X9X9X9X9X9X4X}./.B.M.V.J.L.K.K.K.S.,.H J <.D.L.",
"{.{.{.{.{.{.{.{.{.[.].].].].'.'.'.'.'.].].].[.[.`.C.o. .].<X}.).L.L.K.K.K.K.U.`.'.'.'.'.'.'.].{.[.{.}.}.{.[.{.{.{.~.%.C %./.2X X",
"z.z.z.z.z.z.z.z.z.z.x.m.D.x.z.z.z.z.z.z.z.z.z.z.k.7.W ..=X/.v.z.x.x.x.x.x.c.x.z.z.z.z.z.z.z.b.J.K.K.K.K.H.c.z.z.x.d./ S s.;X`.n.",
"7.;.u.u.u.u.u.u.u.i.i.s.k.i.i.u.u.u.u.u.u.u.u.u.i.8.R ( @XG.p.u.s.M.N.B.n.p.u.u.s.M.n.p.u.u.p.z.x.x.x.x.z.p.i.i.i.q.^ L W.>XP.s.",
"w.5.i.i.i.i.i.i.i.i.i.i.i.p.i.i.i.i.i.i.i.i.i.i.p.8.R ) @XH.a.i.a.z.x.x.l.p.i.i.a.z.l.p.i.i.i.i.i.u.i.i.i.i.p.s.n.r.~ Y $X1XP.d.",
"i.p.i.i.i.i.i.i.i.i.i.i.i.i.i.i.i.i.q.-.u.i.i.i.p.8.R ) @XH.a.i.i.u.u.u.i.i.i.i.i.u.i.i.i.i.i.i.i.i.i.p.i.i.p.a.l.e.^ Y XX{.J.d.",
"i.i.i.i.i.i.i.i.0.:.u.i.i.i.i.i.i.i.r.4.u.i.i.i.p.8.R ) @XH.a.i.i.i.i.i.w.;.y.i.i.i.i.i.i.i.i.i.p.e.=.t.i.i.i.i.i.w.^ Y  XE.F.d.",
"i.i.p.p.p.i.i.i.e.5.u.i.i.i.i.i.i.i.i.p.p.p.p.i.p.8.R ) @XP.V.m.p.i.i.i.t.5.u.i.i.i.i.p.i.i.i.i.p.t.4.u.i.i.s.n.s.w.^ Y  XE.F.d.",
"i.i.p.g.v.p.i.i.i.i.i.i.i.i.i.i.q.;.u.i.p.f.b.p.p.8.R ) @XU.G.z.p.i.i.i.i.i.i.i.p.e.=.y.i.i.i.i.i.i.p.i.i.i.a.l.a.w.^ Y  XE.F.d.",
"i.i.p.d.k.p.i.i.i.i.i.i.i.i.i.i.r.5.u.i.i.h.A.a.p.8.R ) @XK.l.i.i.i.i.i.i.i.i.i.p.t.4.u.i.i.i.i.i.i.i.i.i.i.i.i.i.w.~ Y .XE.F.d.",
"i.i.i.i.p.0.;.i.i.i.i.i.i.i.i.i.i.i.i.i.i.a.k.i.p.8.R ) @XH.a.i.i.i.i.i.i.i.i.i.i.i.p.i.d.b.a.i.i.i.i.i.i.i.i.i.s.k.( Y .XE.F.d.",
"i.i.i.i.p.e.5.i.i.i.i.i.i.i.i.f.b.p.i.i.i.i.i.i.p.8.R ) @XH.a.i.i.i.i.i.d.n.a.i.i.i.i.i.a.j.p.i.i.i.e.=.t.i.i.i.a.s./ Y .XE.F.d.",
"i.i.i.i.i.i.p.i.i.i.i.i.i.i.i.s.j.i.f.b.p.i.i.i.q.o.Y ) @XH.a.i.i.i.i.i.a.k.p.i.i.i.i.i.i.u.i.i.i.i.t.5.y.i.i.i.i.q.^ Y  XY.x.p.",
"+.O.+.+.+.O.+.+.+.+.+.+.+.+.+.O.O.O.#.=.+.+.+.+...^ Y U C.D.a.i.i.i.i.i.i.u.i.i.i.i.i.i.i.i.i.i.i.i.i.p.i.i.i.r.$.| S J H.x.$.O.",
"! ~ ~ ~ ~ ~ ~ ~ ~ ~ ~ ~ ~ ~ ~ ~ ~ ~ ~ ! ~ ~ ~ ~ E A n a ` u.@.O.O.o.o.o.o.o.o.o.o.o.o.O.O.O.O.O.o.O.O.o.o.o.O.X.! C x m ( ..^ ~ ",
"Z A Z Z Z Z A Z Z Z Z Z A Z Z Z Z Z Z Z Z Z Z A V k 8 1 i P A C Z Z Z Z Z Z Z Z Z Z Z Z Z C C C C Z Z Z Z Z Z Z C c z w w N A A ",
"D.D.D.D.D.F.c.{ j r A 3.A.D.D.D.D.D.D.D.D.D.D.D.D.A.n.n.m.S.D.D.D.D.D.D.D.D.D.D.D.D.F.m.+.c e F M.F.D.D.D.D.D.D.D.D.S.m.m.S.D.D.",
"'.'.'.'.'.].^.z.` N q.[.'.'.'.'.].'.'.'.'.'.'.'.].[.[.[.].'.'.'.'.'.'.'.'.'.'.'.'.].).V.X.v C V.`.].].'.'.'.'.'.'.'.'.].].'.'.'.",
"k.k.l.l.k.l.z.p._ ` '.(.D.b.A.n.S.z.l.k.k.k.k.k.v.J.K.K.F.l.k.k.k.k.k.k.k.k.k.k.k.l.s.o.E L Z.(.P.G.x.k.k.k.k.l.l.k.k.k.k.k.l.k.",
"i.i.u.i.u.u.i.5.I | %XG.h.a.g.s.h.u.u.u.u.u.u.u.a.l.z.z.k.i.u.u.u.u.u.i.q.*.t.i.u.i.0._ T Q @XT.H.z.i.u.u.u.i.i.i.u.u.u.u.u.u.u.",
"a.9.-.i.i.i.p.6.U } $XD.p.i.u.i.0.-.u.i.i.i.i.i.i.i.i.i.i.i.i.i.i.i.i.i.t.6.u.i.i.i.0._ T Q OXR.F.s.i.i.i.i.s.B.M.a.i.i.i.i.i.u.",
"p.r.7.i.i.i.p.6.U } $XD.p.i.i.i.r.7.u.i.i.i.f.n.p.i.i.i.i.i.i.i.i.i.i.i.i.p.i.i.i.i.0._ T Q OXR.F.s.e.*.t.i.a.l.k.p.i.i.i.i.i.u.",
"i.i.p.i.i.i.p.6.U } $XD.h.b.p.i.i.i.i.i.i.i.s.j.p.i.i.i.i.i.i.i.i.i.i.i.i.i.i.i.i.i.0._ T Q OXR.F.s.t.6.y.i.i.i.i.i.i.i.i.i.i.u.",
"i.i.i.i.i.i.p.6.U } $XD.d.h.i.i.i.i.i.i.i.i.i.i.i.i.q.=.y.i.i.i.i.i.i.i.i.i.i.u.i.p.0._ T Q OXR.F.s.i.p.i.i.i.i.i.i.r.*.r.i.i.u.",
"i.i.i.i.i.i.p.6.U } $XD.p.u.i.i.i.i.i.i.i.i.i.i.i.i.t.6.u.i.i.i.i.i.i.i.i.i.w.=.t.p.0._ T Q OXR.F.s.i.i.i.i.i.i.i.i.y.6.y.i.i.u.",
"i.i.i.i.i.i.p.6.U } $XD.p.i.i.i.i.i.i.i.i.i.i.i.i.i.i.p.i.i.i.i.i.i.i.i.i.i.t.7.u.p.0._ T Q OXR.F.s.i.i.i.i.i.i.i.i.i.p.i.i.i.u.",
"i.i.i.i.i.i.p.6.U } $XD.p.i.u.i.i.i.f.n.p.i.i.i.i.i.i.i.i.i.i.i.f.n.p.i.i.i.i.i.i.i.0._ T Q OXR.F.s.i.i.i.u.i.i.i.i.i.i.i.i.i.u.",
"b.i.i.i.i.i.i.5.I | $XD.p.0.-.u.i.i.j.A.p.i.i.i.i.u.i.i.i.i.i.i.a.h.p.i.i.i.i.i.i.w.X./ T Q OXR.F.s.i.i.e.*.t.i.i.i.i.i.i.i.i.u.",
"f.u.u.u.u.i.8.` M { @XD.p.e.6.u.u.u.p.g.i.u.u.i.0.*.t.u.u.u.u.u.u.y.u.u.u.u.u.i.q.X.^ ^ T W XXY.D.a.u.u.t.6.y.u.u.u.u.u.u.u.u.u.",
" .........X.) N f c 8.r.X............. .........} (  ...........................} ~ ~ E N G f.:.%.X......................... ...",
"V V V V V C c 9 6 2 j P C C C V V V V V V V V C V C C V V V V V V V V V V V V V V C C V j i J Z V C C V V V V V V V V V V V V V "
};
